<svg class="lucide lucide-apple" xmlns="http://www.w3.org/2000/svg" width="256" height="256" viewBox="0 0 24 24" fill="none" stroke="rgba(0, 0, 0, 1)" stroke-width="2" stroke-linecap="round" stroke-linejoin="round"><defs><linearGradient id="iconhub-shape-2-fill-gradient" gradientUnits="userSpaceOnUse" x1="0" y1="0" x2="24" y2="24" gradientTransform="rotate(360, 12, 12)"><stop offset="41%" stop-color="rgba(255,1,1,1)"/><stop offset="100%" stop-color="rgba(49, 3, 3, 1)"/></linearGradient><linearGradient id="iconhub-shape-1-stroke-gradient" gradientUnits="userSpaceOnUse" x1="0" y1="0" x2="24" y2="24" gradientTransform="rotate(90, 12, 12)"><stop offset="14%" stop-color="rgba(20,255,1,1)"/><stop offset="60%" stop-color="rgba(0,4,0,1)"/></linearGradient></defs><rect id="iconhub-bg-rect" x="0" y="0" width="calc(100% - 0px)" height="calc(100% - 0px)" fill="none" rx="0" stroke-width="0" stroke="none"/>
  <path d="M12 6.528V3a1 1 0 0 1 1-1h0" id="shape-1" stroke="url(#iconhub-shape-1-stroke-gradient)" class=""/>
  <path d="M18.237 21A15 15 0 0 0 22 11a6 6 0 0 0-10-4.472A6 6 0 0 0 2 11a15.1 15.1 0 0 0 3.763 10 3 3 0 0 0 3.648.648 5.5 5.5 0 0 1 5.178 0A3 3 0 0 0 18.237 21" id="shape-2" stroke-width="0" fill="url(#iconhub-shape-2-fill-gradient)" class=""/>
</svg>