<svg class="lucide lucide-atom" xmlns="http://www.w3.org/2000/svg" width="200" height="200" viewBox="0 0 24 24" fill="none" stroke="url(#iconhub-icon-stroke-gradient)" stroke-width="2" stroke-linecap="round" stroke-linejoin="round"><defs><linearGradient id="iconhub-icon-stroke-gradient" gradientUnits="userSpaceOnUse" x1="0" y1="0" x2="24" y2="24" gradientTransform="rotate(90, 12, 12)"><stop offset="0%" stop-color="rgba(2,0,36,1)"/><stop offset="35%" stop-color="rgba(9,9,121,1)"/><stop offset="100%" stop-color="rgba(0,212,255,1)"/></linearGradient></defs><rect id="iconhub-bg-rect" x="0" y="0" width="calc(100% - 0px)" height="calc(100% - 0px)" fill="none" rx="0" stroke-width="0" stroke="none"/>
  <circle cx="12" cy="12" r="1" id="shape-1"/>
  <path d="M20.2 20.2c2.04-2.03.02-7.36-4.5-11.9-4.54-4.52-9.87-6.54-11.9-4.5-2.04 2.03-.02 7.36 4.5 11.9 4.54 4.52 9.87 6.54 11.9 4.5Z" id="shape-2"/>
  <path d="M15.7 15.7c4.52-4.54 6.54-9.87 4.5-11.9-2.03-2.04-7.36-.02-11.9 4.5-4.52 4.54-6.54 9.87-4.5 11.9 2.03 2.04 7.36.02 11.9-4.5Z" id="shape-3"/>
</svg>